# Blender 3.5.0
# www.blender.org
mtllib fireParticle.mtl
o Cube
v -0.288747 0.520388 0.006843
v 0.590705 -0.600160 -0.993157
v -0.288747 0.520388 0.006843
v 0.590705 -0.600160 1.006843
v -0.529842 0.279292 0.006843
v -0.529842 0.279292 0.006843
vn -0.4082 0.4082 0.8165
vn -0.6174 -0.7867 -0.0000
vn 0.7867 0.6174 -0.0000
vn -0.4082 0.4082 -0.8165
vn -0.0000 1.0000 -0.0000
vt 0.625000 0.500000
vt 0.375000 0.500000
vt 0.625000 0.750000
vt 0.375000 0.750000
vt 0.125000 0.500000
vt 0.375000 0.250000
vt 0.375000 1.000000
vt 0.125000 0.750000
vt 0.375000 0.000000
s 0
usemtl Material
f 4/4/1 3/3/1 6/7/1
f 5/5/2 2/2/2 4/4/2 6/8/2
f 2/2/3 1/1/3 3/3/3 4/4/3
f 5/6/4 1/1/4 2/2/4
f 6/9/5 3/3/5 1/1/5 5/6/5
