# Blender 3.5.0
# www.blender.org
mtllib Hut.mtl
o Icosphere
v 0.578250 0.935659 1.779701
v -1.513908 0.935658 1.099906
v -1.513908 0.935658 -1.099906
v 0.578250 0.935659 -1.779701
v 1.871290 0.935650 0.000000
v 0.000000 2.092168 0.000000
v -1.989773 0.000000 0.646506
v -1.229746 0.000000 1.692599
v 1.439808 1.099928 1.046078
v -0.549966 1.099931 1.692588
v -1.779698 1.099928 0.000000
v -0.549966 1.099931 -1.692588
v 1.439808 1.099928 -1.046078
v 0.339884 1.779712 1.046074
v 1.099915 1.779706 0.000000
v -0.889847 1.779711 0.646504
v -0.889847 1.779711 -0.646504
v 0.339884 1.779712 -1.046074
v 1.983711 -0.011919 0.652282
v 1.233366 -0.011919 -1.685049
v 1.983711 -0.011919 -0.652282
v -1.988264 -0.011919 -0.638271
v -0.007366 -0.011919 -2.088187
v -1.232023 -0.011919 -1.685593
v 1.222380 -0.011919 1.692599
v -1.131589 0.012960 1.553055
v -1.394280 0.877922 1.005145
v 1.336259 1.029780 0.955384
v 0.539799 0.877922 1.633576
v -0.503171 1.029783 1.553046
v -1.639988 1.029779 -0.011654
v -1.394280 0.877922 -1.028453
v -0.503171 1.029783 -1.576354
v 0.539799 0.877922 -1.656885
v 1.336259 1.029780 -0.978692
v 1.735139 0.877914 -0.011654
v 0.319443 1.658200 0.955381
v 1.022048 1.658195 -0.011654
v 0.005240 1.947048 -0.011654
v -0.817371 1.658200 0.586001
v -0.817371 1.658200 -0.609310
v 0.319443 1.658200 -0.978689
v -1.834190 0.012960 0.586003
v 1.839066 0.001941 -0.614651
v 1.135260 0.001941 1.553055
v -1.832794 0.001941 -0.601699
v -0.001569 0.001941 -1.942063
v 1.839066 0.001941 0.591343
v -1.133693 0.001941 -1.569888
v 1.145416 0.001941 -1.569384
vn -0.4089 -0.6617 -0.6284
vn 0.4713 -0.6617 -0.5831
vn 0.7002 -0.6617 0.2680
vn -0.0385 -0.6617 0.7488
vn -0.7240 -0.6617 0.1947
vn -0.2680 -0.9435 0.1947
vn -0.4911 -0.7947 0.3568
vn -0.4089 -0.6617 0.6284
vn 0.1024 -0.9435 0.3151
vn 0.1876 -0.7947 0.5773
vn 0.4713 -0.6617 0.5831
vn 0.3313 -0.9435 -0.0000
vn 0.6071 -0.7947 -0.0000
vn 0.7002 -0.6617 -0.2680
vn 0.1024 -0.9435 -0.3151
vn 0.1876 -0.7947 -0.5773
vn -0.2680 -0.9435 -0.1947
vn -0.4911 -0.7947 -0.3568
vn -0.7240 -0.6617 -0.1947
vn -0.8915 -0.3239 0.3168
vn -0.7952 -0.1844 0.5777
vn -0.5768 -0.3239 0.7499
vn 0.0259 -0.3239 0.9457
vn 0.3071 -0.1825 0.9340
vn 0.5350 -0.3233 0.7805
vn 0.9075 -0.3239 0.2677
vn 0.9826 -0.1860 0.0029
vn 0.9050 -0.3304 -0.2680
vn 0.5346 -0.3304 -0.7779
vn -0.5770 -0.3233 -0.7500
vn -0.7934 -0.1825 -0.5807
vn -0.8915 -0.3239 -0.3168
vn -0.3069 -0.1178 0.9444
vn 0.8049 -0.1198 0.5812
vn 0.8026 -0.1256 -0.5831
vn -0.9930 -0.1178 -0.0000
vn 0.4089 0.6617 0.6284
vn -0.4713 0.6617 0.5831
vn -0.7002 0.6617 -0.2680
vn 0.0385 0.6617 -0.7488
vn 0.7240 0.6617 -0.1947
vn 0.2680 0.9435 -0.1947
vn 0.4911 0.7947 -0.3568
vn 0.4089 0.6617 -0.6284
vn -0.1024 0.9435 -0.3151
vn -0.1876 0.7947 -0.5773
vn -0.4713 0.6617 -0.5831
vn -0.3313 0.9435 -0.0000
vn -0.6071 0.7947 -0.0000
vn -0.7002 0.6617 0.2680
vn -0.1024 0.9435 0.3151
vn -0.1876 0.7947 0.5773
vn 0.2680 0.9435 0.1947
vn 0.4911 0.7947 0.3568
vn 0.7240 0.6617 0.1947
vn 0.8915 0.3239 -0.3168
vn 0.7952 0.1844 -0.5777
vn 0.5768 0.3239 -0.7499
vn -0.0259 0.3239 -0.9457
vn -0.3071 0.1825 -0.9340
vn -0.5350 0.3233 -0.7805
vn -0.9075 0.3239 -0.2677
vn -0.9826 0.1860 -0.0029
vn -0.9050 0.3304 0.2680
vn -0.5346 0.3304 0.7779
vn 0.5770 0.3233 0.7500
vn 0.7934 0.1825 0.5807
vn 0.8915 0.3239 0.3168
vn 0.3069 0.1178 -0.9444
vn -0.8049 0.1198 -0.5812
vn -0.8026 0.1256 0.5831
vn 0.9930 0.1178 -0.0000
vn -0.0306 0.9952 -0.0932
vn 0.0311 0.9949 -0.0956
vn 0.9625 0.0385 -0.2685
vn 0.7376 0.5388 -0.4070
vn 0.0802 0.9951 -0.0583
vn -0.7455 0.4607 -0.4816
vn -0.0759 0.9956 -0.0548
vn 0.0729 0.9959 0.0534
vn -0.0647 0.9968 0.0470
vn 0.0954 0.9954 -0.0000
vn -0.7254 0.4859 -0.4875
vn -0.0866 0.9962 -0.0093
vt 0.181819 0.314921
vt 0.000000 0.314921
vt 0.909091 0.314921
vt 0.727273 0.314921
vt 0.545455 0.314921
vt 0.363637 0.314921
vt 0.454546 0.472382
vt 0.636364 0.472382
vt 0.818182 0.472382
vt 0.090910 0.472382
vt 0.272728 0.472382
vt 0.863636 0.236191
vt 0.045455 0.236191
vt 0.954545 0.236191
vt 0.272728 0.314921
vt 0.090910 0.314921
vt 0.818182 0.314921
vt 0.636364 0.314921
vt 0.454546 0.314921
vt 0.227273 0.393651
vt 0.136365 0.393651
vt 0.409092 0.393651
vt 0.318182 0.393651
vt 0.863636 0.393651
vt 0.045455 0.393651
vt 0.681818 0.393651
vt 0.772727 0.393651
vt 0.500000 0.393651
vt 0.590909 0.393651
vt 0.318182 0.236191
vt 0.500000 0.236191
vt 0.409092 0.236191
vt 0.772727 0.236191
vt 0.590909 0.236191
vt 0.681818 0.236191
vt 0.227273 0.236191
vt 0.045455 0.236191
vt 0.954545 0.236191
vt 0.000000 0.314921
vt 0.909091 0.314921
vt 0.272728 0.314921
vt 0.181819 0.314921
vt 0.090910 0.314921
vt 0.818182 0.314921
vt 0.727273 0.314921
vt 0.636364 0.314921
vt 0.545455 0.314921
vt 0.454546 0.314921
vt 0.363637 0.314921
vt 0.227273 0.393651
vt 0.136365 0.393651
vt 0.409092 0.393651
vt 0.318182 0.393651
vt 0.454546 0.472382
vt 0.636364 0.472382
vt 0.818182 0.472382
vt 0.090910 0.472382
vt 0.272728 0.472382
vt 0.863636 0.393651
vt 0.045455 0.393651
vt 0.681818 0.393651
vt 0.772727 0.393651
vt 0.500000 0.393651
vt 0.590909 0.393651
vt 0.863636 0.236191
vt 0.409092 0.236191
vt 0.227273 0.236191
vt 0.772727 0.236191
vt 0.590909 0.236191
vt 0.318182 0.236191
vt 0.681818 0.236191
vt 0.500000 0.236191
s 0
f 1/1/1 14/20/1 9/15/1
f 2/2/2 16/25/2 10/16/2
f 3/4/3 17/27/3 11/17/3
f 4/5/4 18/29/4 12/18/4
f 5/6/5 15/22/5 13/19/5
f 15/22/6 6/7/6 18/28/6
f 15/22/7 18/28/7 13/19/7
f 13/19/8 18/28/8 4/5/8
f 18/29/9 6/8/9 17/26/9
f 18/29/10 17/26/10 12/18/10
f 12/18/11 17/26/11 3/4/11
f 17/27/12 6/9/12 16/24/12
f 17/27/13 16/24/13 11/17/13
f 11/17/14 16/24/14 2/3/14
f 16/25/15 6/10/15 14/21/15
f 16/25/16 14/21/16 10/16/16
f 14/20/17 6/11/17 15/23/17
f 14/20/18 15/23/18 9/15/18
f 9/15/19 15/23/19 5/6/19
f 21/32/20 5/6/20 13/19/20
f 21/32/21 13/19/21 20/31/21
f 20/31/22 13/19/22 4/5/22
f 23/34/23 4/5/23 12/18/23
f 23/34/24 12/18/24 24/35/24
f 24/35/25 12/18/25 3/4/25
f 22/33/26 3/4/26 11/17/26
f 22/33/27 11/17/27 7/12/27
f 7/12/28 11/17/28 2/3/28
f 8/13/29 2/2/29 10/16/29
f 25/36/30 1/1/30 9/15/30
f 25/36/31 9/15/31 19/30/31
f 19/30/32 9/15/32 5/6/32
f 20/31/33 4/5/33 23/34/33
f 24/35/34 3/4/34 22/33/34
f 7/12/35 2/3/35 8/14/35
f 19/30/36 5/6/36 21/32/36
f 29/42/37 28/41/37 37/50/37
f 27/39/38 30/43/38 40/60/38
f 32/45/39 31/44/39 41/62/39
f 34/47/40 33/46/40 42/64/40
f 36/49/41 35/48/41 38/52/41
f 38/52/42 42/63/42 39/54/42
f 38/52/43 35/48/43 42/63/43
f 35/48/44 34/47/44 42/63/44
f 42/64/45 41/61/45 39/55/45
f 42/64/46 33/46/46 41/61/46
f 33/46/47 32/45/47 41/61/47
f 41/62/48 40/59/48 39/56/48
f 41/62/49 31/44/49 40/59/49
f 31/44/50 27/40/50 40/59/50
f 40/60/51 37/51/51 39/57/51
f 40/60/52 30/43/52 37/51/52
f 37/50/53 38/53/53 39/58/53
f 37/50/54 28/41/54 38/53/54
f 28/41/55 36/49/55 38/53/55
f 44/66/56 35/48/56 36/49/56
f 44/66/57 50/72/57 35/48/57
f 50/72/58 34/47/58 35/48/58
f 47/69/59 33/46/59 34/47/59
f 47/69/60 49/71/60 33/46/60
f 49/71/61 32/45/61 33/46/61
f 46/68/62 31/44/62 32/45/62
f 46/68/63 43/65/63 31/44/63
f 43/65/64 27/40/64 31/44/64
f 26/37/65 30/43/65 27/39/65
f 45/67/66 28/41/66 29/42/66
f 45/67/67 48/70/67 28/41/67
f 48/70/68 36/49/68 28/41/68
f 50/72/69 47/69/69 34/47/69
f 49/71/70 46/68/70 32/45/70
f 43/65/71 26/38/71 27/40/71
f 48/70/72 44/66/72 36/49/72
f 23/34/73 24/35/73 49/71/73 47/69/73
f 20/31/74 23/34/74 47/69/74 50/72/74
f 14/20/75 1/1/75 29/42/75 37/50/75
f 1/1/76 25/36/76 45/67/76 29/42/76
f 21/32/77 20/31/77 50/72/77 44/66/77
f 8/13/78 10/16/78 30/43/78 26/37/78
f 24/35/79 22/33/79 46/68/79 49/71/79
f 25/36/80 19/30/80 48/70/80 45/67/80
f 7/12/81 8/14/81 26/38/81 43/65/81
f 19/30/82 21/32/82 44/66/82 48/70/82
f 10/16/83 14/21/83 37/51/83 30/43/83
f 22/33/84 7/12/84 43/65/84 46/68/84
