# Blender 3.5.0
# www.blender.org
mtllib Rock1.mtl
o Cube
v 0.681983 0.324638 -0.894654
v -0.648570 -0.358056 -0.867866
v -1.000000 0.198566 -1.000000
v -1.000000 0.531504 -0.193333
v -0.483575 0.531504 -1.000000
v -0.958610 -0.292228 0.127121
v -0.568550 0.531504 1.000000
v -1.000000 0.531504 0.802541
v 1.000000 0.122608 1.000000
v 1.000000 0.531504 0.560917
v 0.604609 0.531504 1.000000
v -0.141343 -0.625251 -1.000000
v 0.271952 0.030544 -1.190864
v 0.846654 -0.998135 -0.177124
v 1.000000 -0.268377 1.000000
v 0.531357 -0.260754 1.000000
v 0.273871 -0.794444 0.736216
v 0.897089 -0.939120 0.478682
vn -0.5119 0.7941 -0.3277
vn -0.9756 -0.2107 -0.0614
vn 0.6035 0.5835 0.5434
vn 0.4383 -0.4947 -0.7504
vn -0.4297 -0.4678 0.7723
vn 0.0483 0.9978 -0.0459
vn 0.6858 -0.2792 -0.6721
vn -0.0000 -0.0000 1.0000
vn 0.0281 0.3927 -0.9192
vn -0.1847 -0.9775 0.1022
vn -0.3808 -0.9245 -0.0153
vn -0.2298 -0.2396 -0.9433
vn 0.9880 -0.0245 -0.1527
vn 0.1136 -0.5662 0.8164
vt 0.625000 0.500000
vt 0.125000 0.500000
vt 0.375000 0.250000
vt 0.546699 0.250000
vt 0.625000 0.149167
vt 0.875000 0.600833
vt 0.810447 0.500000
vt 0.625000 0.314553
vt 0.375000 0.109110
vt 0.125000 0.640890
vt 0.821069 0.750000
vt 0.625000 0.946069
vt 0.625000 0.024682
vt 0.875000 0.725318
vt 0.528835 0.750000
vt 0.625000 0.695115
vt 0.674424 0.750000
vt 0.625000 0.799424
vt 0.235314 0.500000
vt 0.375000 0.360314
vt 0.503893 0.500000
vt 0.375000 0.646211
vt 0.436883 0.750000
vt 0.438675 0.808580
vt 0.291359 0.717027
vt 0.375000 0.564414
vt 0.375000 0.718337
s 0
usemtl Material
f 4/5/1 5/8/1 3/4/1
f 6/9/2 8/13/2 4/5/2 3/4/2 2/3/2
f 11/18/3 9/15/3 10/16/3
f 13/21/4 14/22/4 12/19/4
f 16/24/5 7/12/5 8/14/5 6/9/5 17/26/5
f 1/1/6 5/7/6 4/6/6 8/14/6 7/11/6 11/17/6 10/16/6
f 13/21/7 1/1/7 14/22/7
f 15/23/8 9/15/8 11/18/8 7/12/8 16/24/8
f 3/4/9 5/8/9 1/1/9 13/21/9
f 17/25/10 14/22/10 18/27/10
f 2/2/11 12/19/11 14/22/11 17/25/11 6/10/11
f 2/3/12 3/4/12 13/21/12 12/20/12
f 1/1/13 10/16/13 9/15/13 15/23/13 18/27/13 14/22/13
f 17/26/14 18/27/14 15/23/14 16/24/14
